# xmcd
#
# Track frame offsets:
#	150
#	12847
#	29851
#	47162
#	64030
#	83297
#	97253
#	113916
#	129187
#	145138
#	163101
#	176943
#	191988
#	207335
#	222391
#	239922
#	255562
#
# Disc length: 3657 seconds
#
# Revision: 4
# Processed by: cddbd v1.5.1PL0 Copyright (c) Steve Scherf et al.
# Submitted via: audiograbber 1.83.01
#
DISCID=040e4711
DTITLE=Various Artist - Rc66 June 2001
DYEAR=1900
DGENRE=Country
TTITLE0=Toby Keith - I'm Just Talkin' About Tonight
TTITLE1=Jo Dee Messina - Downtime
TTITLE2=Chris Cagle - Laredo
TTITLE3=Faith Hill - There You'll Be
TTITLE4=Lonestar - I'm Already There
TTITLE5=Jamie O'neal - When I Think About Angels
TTITLE6=Montgomery Gentry - She Couldn't Change Me
TTITLE7=Patty Loveless - The Last Thing On My Mind
TTITLE8=Alan Jackson - When Somebody Loves You
TTITLE9=Steve Holy - The Hunger
TTITLE10=Keith Urban - Where The Blacktop Ends
TTITLE11=Aaron Tippin - People Like Us
TTITLE12=Leann Rimes - But I Do Love You
TTITLE13=Clay Davidson - Sometimes
TTITLE14=Blake Shelton - Austin
TTITLE15=Rascal Flatts - While You Loved Me
TTITLE16=Brad Paisley - Two People In Love
EXTD=ID3G: 2
EXTT0=
EXTT1=
EXTT2=
EXTT3=
EXTT4=
EXTT5=
EXTT6=
EXTT7=
EXTT8=
EXTT9=
EXTT10=
EXTT11=
EXTT12=
EXTT13=
EXTT14=
EXTT15=
EXTT16=
PLAYORDER=
